<?xml version="1.0" encoding="UTF-8" standalone="no"?>
<!-- Created with Inkscape (http://www.inkscape.org/) -->

<svg
   version="1.1"
   id="svg2"
   xml:space="preserve"
   width="113.38667"
   height="37.826668"
   viewBox="0 0 113.38667 37.826668"
   sodipodi:docname="logo_UCT.svg"
   inkscape:version="1.1.2 (0a00cf5339, 2022-02-04)"
   xmlns:inkscape="http://www.inkscape.org/namespaces/inkscape"
   xmlns:sodipodi="http://sodipodi.sourceforge.net/DTD/sodipodi-0.dtd"
   xmlns="http://www.w3.org/2000/svg"
   xmlns:svg="http://www.w3.org/2000/svg"><defs
     id="defs6" /><sodipodi:namedview
     id="namedview4"
     pagecolor="#ffffff"
     bordercolor="#666666"
     borderopacity="1.0"
     inkscape:pageshadow="2"
     inkscape:pageopacity="0.0"
     inkscape:pagecheckerboard="0"
     showgrid="false"
     inkscape:zoom="13.0615"
     inkscape:cx="56.693336"
     inkscape:cy="18.948819"
     inkscape:window-width="2486"
     inkscape:window-height="1016"
     inkscape:window-x="74"
     inkscape:window-y="27"
     inkscape:window-maximized="1"
     inkscape:current-layer="g8" /><g
     id="g8"
     inkscape:groupmode="layer"
     inkscape:label="ink_ext_XXXXXX"
     transform="matrix(1.3333333,0,0,-1.3333333,0,37.826667)"><g
       id="g10"
       transform="scale(0.1)"><path
         d="m 363.172,208.922 c -0.836,-3.152 -2.16,-5.809 -3.969,-7.977 -1.82,-2.16 -4.125,-3.804 -6.961,-4.941 -2.816,-1.125 -6.238,-1.688 -10.277,-1.688 -3.5,0 -6.645,0.399 -9.406,1.2 -2.762,0.804 -5.094,2.187 -7.032,4.148 -1.937,1.961 -3.398,4.551 -4.406,7.789 -1.023,3.238 -1.519,7.281 -1.519,12.164 v 35.633 h 11.132 v -37.328 c 0,-2.555 0.192,-4.695 0.536,-6.414 0.347,-1.719 0.988,-3.102 1.882,-4.137 0.891,-1.047 2.039,-1.781 3.5,-2.238 1.461,-0.434 3.282,-0.66 5.489,-0.66 4.109,0 7.089,1.007 8.953,3.015 1.871,2.024 2.808,5.496 2.808,10.434 v 37.328 h 10.512 v -35.633 c 0,-3.98 -0.418,-7.543 -1.242,-10.695"
         style="fill:#7b7979;fill-opacity:1;fill-rule:nonzero;stroke:none"
         id="path12" /><path
         d="m 425.082,195.563 c -0.707,-0.129 -1.519,-0.219 -2.402,-0.313 -0.895,-0.09 -1.809,-0.184 -2.762,-0.262 -0.945,-0.093 -1.891,-0.148 -2.805,-0.191 -0.929,-0.031 -1.754,-0.039 -2.457,-0.039 l -21.742,38.222 c -0.16,0.352 -0.394,0.817 -0.66,1.383 -0.27,0.559 -0.547,1.153 -0.801,1.778 -0.281,0.617 -0.523,1.246 -0.75,1.867 -0.234,0.621 -0.457,1.207 -0.644,1.734 l -0.789,-0.078 c 0.105,-1.25 0.222,-2.492 0.304,-3.703 0.09,-1.211 0.141,-2.305 0.141,-3.25 v -37.508 h -9.977 v 59.414 c 0.832,0.125 1.762,0.238 2.805,0.375 1.031,0.102 2.078,0.184 3.121,0.258 1.031,0.059 2.043,0.105 3.027,0.129 0.973,0.039 1.844,0.047 2.625,0.047 l 20.579,-36.164 c 0.472,-0.903 0.984,-1.965 1.531,-3.219 0.519,-1.246 0.972,-2.426 1.308,-3.551 l 0.813,0.086 c -0.129,0.961 -0.223,2.133 -0.313,3.563 -0.082,1.414 -0.129,2.632 -0.129,3.648 v 35.461 h 9.977 v -59.687"
         style="fill:#7b7979;fill-opacity:1;fill-rule:nonzero;stroke:none"
         id="path14" /><path
         d="m 440.66,195.203 v 60.047 h 11.145 V 195.203 H 440.66"
         style="fill:#7b7979;fill-opacity:1;fill-rule:nonzero;stroke:none"
         id="path16" /><path
         d="m 509.453,254.723 c -2.683,-10.215 -5.547,-20.254 -8.598,-30.067 -3.062,-9.843 -6.292,-19.652 -9.679,-29.453 H 479.07 c -3.336,9.801 -6.476,19.629 -9.445,29.485 -2.969,9.867 -5.766,19.875 -8.375,30.035 1.648,0.277 3.574,0.527 5.723,0.703 2.121,0.172 3.871,0.265 5.226,0.265 l 12.028,-43.113 c 0.253,-0.703 0.421,-1.496 0.539,-2.359 0.121,-0.864 0.234,-1.711 0.367,-2.535 h 0.793 c 0.058,0.824 0.172,1.66 0.324,2.484 0.145,0.824 0.324,1.637 0.566,2.41 l 12.204,43.113 c 0.718,0 1.507,-0.015 2.414,-0.039 0.91,-0.027 1.82,-0.086 2.808,-0.183 0.973,-0.09 1.91,-0.18 2.805,-0.305 0.883,-0.121 1.683,-0.266 2.406,-0.441"
         style="fill:#7b7979;fill-opacity:1;fill-rule:nonzero;stroke:none"
         id="path18" /><path
         d="m 554.434,200.191 c -0.184,-1.652 -0.379,-3.328 -0.614,-4.988 h -35.004 v 60.047 h 34.379 c 0,-1.484 -0.062,-3.102 -0.234,-4.844 -0.125,-1.769 -0.332,-3.41 -0.578,-4.949 H 529.934 V 230.93 h 16.671 v -9.625 h -16.671 v -16.301 h 24.781 c 0,-1.535 -0.106,-3.16 -0.281,-4.813"
         style="fill:#7b7979;fill-opacity:1;fill-rule:nonzero;stroke:none"
         id="path20" /><path
         d="m 603.609,194.988 c -2.007,-0.222 -3.968,-0.312 -5.882,-0.312 l -4.434,9.441 c -1.621,3.324 -3.195,6.274 -4.77,8.856 -1.582,2.582 -3.023,4.562 -4.332,5.933 h -6.949 v -23.703 h -10.871 v 59.414 c 3.688,0.477 6.992,0.809 9.938,0.981 2.941,0.187 5.839,0.265 8.683,0.265 2.735,0 5.297,-0.32 7.711,-0.965 2.395,-0.656 4.512,-1.687 6.336,-3.074 1.781,-1.394 3.234,-3.207 4.309,-5.441 1.074,-2.219 1.609,-4.949 1.609,-8.149 0,-2.023 -0.301,-3.886 -0.906,-5.617 -0.59,-1.719 -1.403,-3.258 -2.438,-4.625 -1.039,-1.367 -2.261,-2.547 -3.668,-3.508 -1.375,-0.988 -2.882,-1.742 -4.496,-2.296 3.528,-3.02 6.656,-7.391 9.453,-13.09 l 6.504,-13.27 c -1.828,-0.363 -3.777,-0.648 -5.797,-0.84 z m -9.886,42.539 c 0,3.196 -0.797,5.575 -2.403,7.075 -1.597,1.515 -3.925,2.261 -6.957,2.261 -1.183,0 -2.41,-0.011 -3.687,-0.082 -1.281,-0.054 -2.426,-0.14 -3.434,-0.258 v -19.156 h 6.051 c 3.223,0 5.762,0.793 7.625,2.406 1.875,1.606 2.805,4.196 2.805,7.754"
         style="fill:#7b7979;fill-opacity:1;fill-rule:nonzero;stroke:none"
         id="path22" /><path
         d="m 653.422,212.219 c 0,-2.91 -0.508,-5.473 -1.52,-7.703 -1.007,-2.227 -2.449,-4.11 -4.332,-5.614 -1.875,-1.519 -4.09,-2.648 -6.711,-3.437 -2.625,-0.762 -5.484,-1.149 -8.648,-1.149 -2.492,0 -5.203,0.192 -8.102,0.579 -2.918,0.386 -5.613,1.109 -8.109,2.183 0.227,1.711 0.566,3.414 0.973,5.07 0.433,1.665 0.836,3.18 1.25,4.547 2.254,-1.007 4.738,-1.746 7.433,-2.222 2.711,-0.477 5.309,-0.727 7.813,-0.727 2.906,0 5.054,0.645 6.465,1.934 1.394,1.273 2.082,3.125 2.082,5.558 0,1.903 -0.645,3.473 -1.914,4.723 -1.286,1.242 -2.875,2.394 -4.758,3.437 -1.906,1.024 -3.985,2.067 -6.25,3.114 -2.262,1.031 -4.336,2.261 -6.242,3.644 -1.887,1.418 -3.481,3.102 -4.766,5.133 -1.277,2.016 -1.902,4.516 -1.902,7.477 0,2.851 0.543,5.343 1.648,7.496 1.094,2.125 2.625,3.937 4.598,5.422 1.949,1.488 4.261,2.593 6.945,3.355 2.664,0.727 5.566,1.106 8.723,1.106 1.89,0 3.965,-0.098 6.246,-0.321 2.242,-0.199 4.414,-0.574 6.492,-1.101 -0.129,-1.368 -0.305,-2.934 -0.531,-4.684 -0.25,-1.758 -0.528,-3.398 -0.895,-4.949 -1.961,0.48 -4.18,0.863 -6.683,1.172 -2.497,0.285 -4.688,0.426 -6.594,0.426 -3.153,0 -5.367,-0.629 -6.641,-1.899 -1.281,-1.277 -1.918,-3.043 -1.918,-5.312 0,-1.661 0.637,-3.082 1.918,-4.27 1.274,-1.184 2.879,-2.301 4.778,-3.336 1.886,-1.043 3.964,-2.082 6.242,-3.133 2.234,-1.027 4.328,-2.285 6.215,-3.734 1.91,-1.461 3.496,-3.207 4.777,-5.254 1.281,-2.051 1.918,-4.559 1.918,-7.531"
         style="fill:#7b7979;fill-opacity:1;fill-rule:nonzero;stroke:none"
         id="path24" /><path
         d="m 665.527,195.203 v 60.047 h 11.125 v -60.047 h -11.125"
         style="fill:#7b7979;fill-opacity:1;fill-rule:nonzero;stroke:none"
         id="path26" /><path
         d="m 739.488,226.477 c 0,-5.172 -0.683,-9.758 -2.023,-13.774 -1.32,-3.992 -3.168,-7.355 -5.524,-10.058 -2.339,-2.707 -5.164,-4.754 -8.457,-6.149 -3.3,-1.394 -6.894,-2.094 -10.82,-2.094 -1.551,0 -3.23,0.024 -5.035,0.082 -1.82,0.055 -3.633,0.145 -5.438,0.231 -1.828,0.082 -3.597,0.219 -5.339,0.394 -1.766,0.192 -3.317,0.356 -4.684,0.536 v 58.972 c 1.238,0.188 2.754,0.356 4.547,0.5 1.773,0.145 3.629,0.293 5.519,0.395 1.895,0.129 3.77,0.218 5.614,0.273 1.836,0.051 3.41,0.078 4.726,0.078 3.672,0 7.164,-0.543 10.414,-1.633 3.27,-1.101 6.114,-2.839 8.563,-5.214 2.429,-2.375 4.359,-5.418 5.801,-9.137 1.41,-3.711 2.136,-8.176 2.136,-13.402 z m -11.949,-1.071 c 0,3.977 -0.422,7.289 -1.25,9.93 -0.84,2.637 -1.937,4.777 -3.301,6.379 -1.367,1.594 -2.968,2.734 -4.812,3.375 -1.836,0.652 -3.801,0.992 -5.871,0.992 -1.301,0 -2.797,-0.059 -4.457,-0.141 -1.668,-0.093 -3.172,-0.199 -4.547,-0.316 v -40.98 c 1.199,-0.114 2.644,-0.223 4.375,-0.321 1.715,-0.078 3.219,-0.109 4.535,-0.109 5.113,0 8.945,1.668 11.492,5.019 2.555,3.352 3.836,8.743 3.836,16.172"
         style="fill:#7b7979;fill-opacity:1;fill-rule:nonzero;stroke:none"
         id="path28" /><path
         d="m 794.445,195.742 c -1.73,-0.359 -3.492,-0.621 -5.3,-0.754 -1.813,-0.148 -3.676,-0.23 -5.567,-0.23 l -4.906,16.39 h -18.809 l -4.894,-16.39 c -1.656,0 -3.364,0.082 -5.114,0.23 -1.753,0.133 -3.402,0.395 -4.945,0.754 2.727,9.738 5.653,19.559 8.774,29.438 3.121,9.894 6.445,19.91 10.035,30.07 h 12.187 c 3.332,-9.98 6.559,-19.988 9.668,-30.016 3.117,-10.043 6.067,-19.875 8.871,-29.492 z m -24.152,43.645 c -0.234,0.726 -0.41,1.429 -0.477,2.144 -0.101,0.711 -0.168,1.543 -0.23,2.5 h -0.711 c -0.055,-0.957 -0.137,-1.789 -0.168,-2.5 -0.066,-0.715 -0.227,-1.418 -0.441,-2.144 l -5.817,-19.059 H 776 l -5.707,19.059"
         style="fill:#7b7979;fill-opacity:1;fill-rule:nonzero;stroke:none"
         id="path30" /><path
         d="m 850.398,226.477 c 0,-5.172 -0.679,-9.758 -2.007,-13.774 -1.352,-3.992 -3.168,-7.355 -5.52,-10.058 -2.363,-2.707 -5.183,-4.754 -8.473,-6.149 -3.308,-1.394 -6.898,-2.094 -10.824,-2.094 -1.543,0 -3.222,0.024 -5.031,0.082 -1.816,0.055 -3.625,0.145 -5.445,0.231 -1.813,0.082 -3.578,0.219 -5.336,0.394 -1.746,0.192 -3.317,0.356 -4.676,0.536 v 58.972 c 1.238,0.188 2.762,0.356 4.539,0.5 1.781,0.145 3.617,0.293 5.531,0.395 1.891,0.129 3.758,0.218 5.614,0.273 1.835,0.051 3.398,0.078 4.726,0.078 3.684,0 7.152,-0.543 10.418,-1.633 3.254,-1.101 6.109,-2.839 8.547,-5.214 2.437,-2.375 4.367,-5.418 5.785,-9.137 1.434,-3.711 2.152,-8.176 2.152,-13.402 z m -11.941,-1.071 c 0,3.977 -0.418,7.289 -1.246,9.93 -0.844,2.637 -1.945,4.777 -3.297,6.379 -1.371,1.594 -2.984,2.734 -4.82,3.375 -1.848,0.652 -3.781,0.992 -5.883,0.992 -1.309,0 -2.781,-0.059 -4.441,-0.141 -1.668,-0.093 -3.188,-0.199 -4.547,-0.316 v -40.98 c 1.172,-0.114 2.644,-0.223 4.363,-0.321 1.715,-0.078 3.238,-0.109 4.559,-0.109 5.078,0 8.918,1.668 11.46,5.019 2.563,3.352 3.852,8.743 3.852,16.172"
         style="fill:#7b7979;fill-opacity:1;fill-rule:nonzero;stroke:none"
         id="path32" /><path
         d="m 359.344,113.828 c -2.262,-1.383 -4.91,-2.359 -7.934,-2.992 -3.031,-0.633 -5.894,-0.93 -8.566,-0.93 -8.664,0 -15.227,2.606 -19.672,7.844 -4.449,5.215 -6.692,12.945 -6.692,23.156 0,5.332 0.661,9.961 1.958,13.856 1.316,3.89 3.125,7.09 5.441,9.613 2.309,2.523 5.047,4.383 8.191,5.57 3.133,1.192 6.571,1.793 10.243,1.793 1.371,0 2.808,-0.082 4.281,-0.238 1.484,-0.145 2.937,-0.328 4.363,-0.578 1.438,-0.227 2.762,-0.527 4.016,-0.883 1.238,-0.355 2.281,-0.785 3.129,-1.25 -0.137,-1.43 -0.348,-3.023 -0.688,-4.805 -0.32,-1.793 -0.668,-3.48 -1.016,-5.082 -2.019,1.012 -4.214,1.766 -6.554,2.27 -2.344,0.504 -4.676,0.766 -7,0.766 -2.133,0 -4.09,-0.352 -5.864,-1.024 -1.8,-0.699 -3.32,-1.828 -4.597,-3.43 -1.285,-1.609 -2.25,-3.765 -2.934,-6.464 -0.687,-2.7 -1.031,-6.075 -1.031,-10.114 0,-7.648 1.203,-13.113 3.605,-16.351 2.415,-3.235 6.102,-4.864 11.094,-4.864 2.547,0 5.125,0.383 7.711,1.176 2.578,0.762 4.824,1.75 6.727,2.938 0.41,-1.543 0.777,-3.157 1.101,-4.821 0.352,-1.664 0.547,-3.39 0.688,-5.156"
         style="fill:#7b7979;fill-opacity:1;fill-rule:nonzero;stroke:none"
         id="path34" /><path
         d="m 412.879,111.332 c -1.727,-0.363 -3.492,-0.605 -5.313,-0.758 -1.796,-0.148 -3.664,-0.226 -5.558,-0.226 l -4.895,16.394 h -18.804 l -4.895,-16.394 c -1.672,0 -3.375,0.078 -5.125,0.226 -1.754,0.153 -3.414,0.395 -4.93,0.758 2.715,9.738 5.633,19.543 8.766,29.43 3.121,9.89 6.453,19.918 10.023,30.082 h 12.196 c 3.324,-9.985 6.551,-19.989 9.66,-30.028 3.133,-10.031 6.078,-19.859 8.875,-29.484 z m -24.141,43.656 c -0.242,0.711 -0.418,1.418 -0.5,2.129 -0.093,0.719 -0.16,1.543 -0.218,2.496 h -0.719 c -0.059,-0.953 -0.106,-1.777 -0.164,-2.496 -0.071,-0.711 -0.223,-1.418 -0.453,-2.129 l -5.786,-19.078 h 13.524 l -5.684,19.078"
         style="fill:#7b7979;fill-opacity:1;fill-rule:nonzero;stroke:none"
         id="path36" /><path
         d="m 452.656,165.934 c -0.148,-1.711 -0.386,-3.344 -0.656,-4.895 h -13.832 v -50.242 h -11.117 v 50.242 h -14.348 v 9.805 h 40.188 c 0,-1.543 -0.086,-3.18 -0.235,-4.91"
         style="fill:#7b7979;fill-opacity:1;fill-rule:nonzero;stroke:none"
         id="path38" /><path
         d="m 509.531,140.816 c 0,-5.402 -0.601,-10.05 -1.824,-13.941 -1.215,-3.898 -2.934,-7.098 -5.16,-9.625 -2.223,-2.535 -4.91,-4.375 -8.016,-5.57 -3.129,-1.188 -6.551,-1.774 -10.304,-1.774 -3.844,0 -7.34,0.578 -10.465,1.735 -3.117,1.168 -5.766,2.957 -7.969,5.425 -2.199,2.473 -3.891,5.645 -5.09,9.493 -1.18,3.875 -1.773,8.496 -1.773,13.902 0,5.164 0.593,9.719 1.773,13.637 1.199,3.918 2.914,7.175 5.129,9.793 2.227,2.609 4.902,4.57 8.027,5.875 3.125,1.316 6.582,1.972 10.368,1.972 3.875,0 7.359,-0.601 10.48,-1.793 3.106,-1.187 5.777,-3.047 7.969,-5.57 2.207,-2.523 3.894,-5.723 5.078,-9.613 1.187,-3.895 1.777,-8.535 1.777,-13.946 z m -11.926,0 c 0,4.094 -0.3,7.504 -0.89,10.25 -0.61,2.719 -1.465,4.934 -2.59,6.59 -1.125,1.664 -2.527,2.836 -4.195,3.516 -1.649,0.68 -3.551,1.019 -5.703,1.019 -2.188,0 -4.137,-0.339 -5.817,-1.019 -1.699,-0.68 -3.097,-1.852 -4.195,-3.516 -1.098,-1.656 -1.93,-3.871 -2.488,-6.59 -0.567,-2.746 -0.86,-6.156 -0.86,-10.25 0,-3.918 0.254,-7.226 0.766,-9.941 0.508,-2.703 1.305,-4.898 2.402,-6.586 1.102,-1.684 2.496,-2.922 4.184,-3.699 1.703,-0.777 3.719,-1.164 6.008,-1.164 2.324,0 4.332,0.387 6.027,1.121 1.695,0.738 3.086,1.941 4.199,3.613 1.078,1.66 1.891,3.848 2.402,6.59 0.489,2.723 0.75,6.078 0.75,10.066 z m -5.359,37.731 c -1.07,-1.402 -2.656,-3.012 -4.797,-4.859 -1.422,0 -2.996,0.078 -4.687,0.226 -1.688,0.149 -3.219,0.285 -4.59,0.402 l 5.176,9.086 h 11.488 c -0.645,-1.843 -1.523,-3.457 -2.59,-4.855"
         style="fill:#7b7979;fill-opacity:1;fill-rule:nonzero;stroke:none"
         id="path40" /><path
         d="m 555.465,115.691 c -0.145,-1.671 -0.34,-3.293 -0.578,-4.894 h -33.149 v 60.047 h 11.145 V 120.68 h 22.82 c 0,-1.66 -0.098,-3.328 -0.238,-4.989"
         style="fill:#7b7979;fill-opacity:1;fill-rule:nonzero;stroke:none"
         id="path42" /><path
         d="m 565.656,110.797 v 60.047 h 11.145 v -60.047 h -11.145"
         style="fill:#7b7979;fill-opacity:1;fill-rule:nonzero;stroke:none"
         id="path44" /><path
         d="m 631.859,113.828 c -2.277,-1.383 -4.906,-2.359 -7.921,-2.992 -3.028,-0.633 -5.899,-0.93 -8.567,-0.93 -8.68,0 -15.23,2.606 -19.687,7.844 -4.454,5.215 -6.692,12.945 -6.692,23.156 0,5.332 0.664,9.961 1.957,13.856 1.313,3.89 3.141,7.09 5.446,9.613 2.316,2.523 5.054,4.383 8.203,5.57 3.14,1.192 6.562,1.793 10.23,1.793 1.375,0 2.793,-0.082 4.281,-0.238 1.493,-0.145 2.957,-0.328 4.375,-0.578 1.438,-0.227 2.758,-0.527 4.012,-0.883 1.242,-0.355 2.274,-0.785 3.117,-1.25 -0.125,-1.43 -0.347,-3.023 -0.672,-4.805 -0.324,-1.793 -0.66,-3.48 -1.015,-5.082 -2.02,1.012 -4.219,1.766 -6.563,2.27 -2.336,0.504 -4.675,0.766 -6.992,0.766 -2.148,0 -4.109,-0.352 -5.879,-1.024 -1.781,-0.699 -3.32,-1.828 -4.586,-3.43 -1.273,-1.609 -2.258,-3.765 -2.957,-6.464 -0.672,-2.7 -1.011,-6.075 -1.011,-10.114 0,-7.648 1.21,-13.113 3.613,-16.351 2.414,-3.235 6.097,-4.864 11.097,-4.864 2.54,0 5.122,0.383 7.692,1.176 2.59,0.762 4.824,1.75 6.726,2.938 0.422,-1.543 0.797,-3.157 1.114,-4.821 0.34,-1.664 0.55,-3.39 0.679,-5.156"
         style="fill:#7b7979;fill-opacity:1;fill-rule:nonzero;stroke:none"
         id="path46" /><path
         d="m 685.391,111.332 c -1.711,-0.363 -3.493,-0.605 -5.301,-0.758 -1.809,-0.148 -3.668,-0.226 -5.559,-0.226 l -4.902,16.394 h -18.793 l -4.906,-16.394 c -1.66,0 -3.367,0.078 -5.121,0.226 -1.75,0.153 -3.403,0.395 -4.938,0.758 2.723,9.738 5.649,19.543 8.766,29.43 3.125,9.89 6.461,19.918 10.039,30.082 h 12.191 c 3.328,-9.985 6.551,-19.989 9.66,-30.028 3.121,-10.031 6.078,-19.859 8.864,-29.484 z m -24.137,43.656 c -0.238,0.711 -0.395,1.418 -0.484,2.129 -0.098,0.719 -0.172,1.543 -0.231,2.496 h -0.703 c -0.066,-0.953 -0.129,-1.777 -0.184,-2.496 -0.074,-0.711 -0.211,-1.418 -0.453,-2.129 L 653.41,135.91 h 13.547 l -5.703,19.078"
         style="fill:#7b7979;fill-opacity:1;fill-rule:nonzero;stroke:none"
         id="path48" /><path
         d="m 758.633,142.066 c 0,-5.168 -0.676,-9.75 -2.004,-13.761 -1.344,-4.016 -3.18,-7.371 -5.524,-10.067 -2.351,-2.711 -5.175,-4.754 -8.468,-6.16 -3.289,-1.387 -6.903,-2.082 -10.824,-2.082 -1.551,0 -3.219,0.02 -5.036,0.078 -1.808,0.074 -3.636,0.129 -5.437,0.239 -1.809,0.078 -3.586,0.203 -5.344,0.39 -1.746,0.18 -3.308,0.36 -4.68,0.531 v 58.973 c 1.258,0.188 2.778,0.359 4.547,0.488 1.782,0.16 3.633,0.297 5.532,0.414 1.894,0.11 3.761,0.207 5.605,0.266 1.84,0.047 3.414,0.094 4.723,0.094 3.679,0 7.156,-0.559 10.429,-1.656 3.27,-1.09 6.118,-2.825 8.551,-5.215 2.434,-2.371 4.36,-5.41 5.774,-9.121 1.449,-3.719 2.156,-8.176 2.156,-13.411 z m -11.945,-1.078 c 0,3.981 -0.415,7.301 -1.247,9.942 -0.839,2.64 -1.925,4.769 -3.289,6.359 -1.382,1.613 -2.972,2.734 -4.8,3.391 -1.856,0.664 -3.817,0.992 -5.899,0.992 -1.308,0 -2.793,-0.055 -4.453,-0.137 -1.676,-0.101 -3.191,-0.191 -4.547,-0.316 V 120.23 c 1.195,-0.105 2.66,-0.226 4.371,-0.304 1.723,-0.102 3.242,-0.125 4.535,-0.125 5.106,0 8.946,1.668 11.5,5.035 2.563,3.336 3.829,8.734 3.829,16.152"
         style="fill:#7b7979;fill-opacity:1;fill-rule:nonzero;stroke:none"
         id="path50" /><path
         d="m 806.57,115.777 c -0.187,-1.648 -0.41,-3.332 -0.64,-4.98 h -35.012 v 60.047 h 34.383 c 0,-1.492 -0.059,-3.121 -0.215,-4.852 -0.145,-1.758 -0.34,-3.402 -0.566,-4.953 h -22.465 v -14.531 h 16.668 v -9.61 H 782.055 V 120.59 h 24.765 c 0,-1.547 -0.082,-3.133 -0.25,-4.813"
         style="fill:#7b7979;fill-opacity:1;fill-rule:nonzero;stroke:none"
         id="path52" /><path
         d="m 353.59,81.5313 c -0.141,-1.7305 -0.371,-3.3594 -0.676,-4.8985 H 339.109 V 26.3789 h -11.132 v 50.2539 h -14.352 v 9.7969 h 40.184 c 0,-1.5469 -0.071,-3.1836 -0.219,-4.8984"
         style="fill:#7b7979;fill-opacity:1;fill-rule:nonzero;stroke:none"
         id="path54" /><path
         d="m 398.797,31.3672 c -0.176,-1.6563 -0.371,-3.3242 -0.617,-4.9883 h -35.008 v 60.0508 h 34.383 c 0,-1.4844 -0.071,-3.1055 -0.219,-4.8555 -0.152,-1.75 -0.34,-3.4023 -0.594,-4.9414 H 374.297 V 62.1094 h 16.66 v -9.6133 h -16.66 V 36.1836 h 24.777 c 0,-1.5273 -0.094,-3.1406 -0.277,-4.8164"
         style="fill:#7b7979;fill-opacity:1;fill-rule:nonzero;stroke:none"
         id="path56" /><path
         d="m 473.184,26.8203 c -1.664,-0.2851 -3.465,-0.4961 -5.379,-0.6133 -1.938,-0.125 -3.676,-0.1797 -5.219,-0.1797 l -2.762,38.7461 c 0,0.293 -0.027,0.7344 -0.051,1.293 -0.035,0.5664 -0.046,1.1445 -0.046,1.7383 0,0.6523 0,1.2773 0,1.8672 0,0.6054 0,1.0781 0,1.4414 h -0.797 c -0.129,-1.1914 -0.278,-2.3945 -0.532,-3.5625 -0.234,-1.1797 -0.453,-2.1211 -0.617,-2.7774 L 446.195,26.3789 h -10.511 l -11.852,38.3945 c -0.168,0.6563 -0.371,1.5977 -0.57,2.7774 -0.211,1.168 -0.383,2.3711 -0.489,3.5625 h -0.71 c 0,-0.3633 0,-0.836 0,-1.4414 0,-0.5899 -0.032,-1.2031 -0.055,-1.8203 -0.035,-0.6289 -0.07,-1.2188 -0.094,-1.7852 -0.023,-0.5586 -0.047,-1 -0.047,-1.293 L 418.48,26.0273 c -1.484,0 -3.097,0.0547 -4.859,0.1797 -1.738,0.1172 -3.238,0.3282 -4.48,0.6133 0.64,9.9844 1.429,19.875 2.355,29.6797 0.918,9.8047 1.973,19.7734 3.16,29.9297 h 12.559 L 439.789,46.082 c 0.281,-0.9531 0.543,-2.0507 0.738,-3.3007 0.223,-1.2461 0.379,-2.4805 0.496,-3.6602 h 0.805 c 0.117,1.1797 0.262,2.4141 0.399,3.6602 0.136,1.25 0.363,2.371 0.671,3.3789 l 12.207,40.2695 h 12.735 c 1.137,-10.1016 2.148,-20.0586 3.027,-29.8828 0.891,-9.8321 1.672,-19.7422 2.317,-29.7266"
         style="fill:#7b7979;fill-opacity:1;fill-rule:nonzero;stroke:none"
         id="path58" /><path
         d="m 530.48,40.1055 c -0.835,-3.1524 -2.156,-5.8125 -3.98,-7.9688 -1.797,-2.1758 -4.117,-3.832 -6.937,-4.9531 -2.829,-1.1211 -6.247,-1.6914 -10.297,-1.6914 -3.504,0 -6.641,0.3867 -9.383,1.2031 -2.778,0.8047 -5.117,2.1758 -7.039,4.125 -1.938,1.9766 -3.414,4.5586 -4.422,7.8125 -1,3.2422 -1.508,7.2891 -1.508,12.1524 v 35.6445 h 11.121 v -37.332 c 0,-2.543 0.188,-4.6719 0.555,-6.4063 0.344,-1.7226 0.973,-3.1055 1.871,-4.1484 0.894,-1.043 2.039,-1.7813 3.504,-2.2305 1.461,-0.457 3.281,-0.6641 5.488,-0.6641 4.102,0 7.07,1.0118 8.953,3.0313 1.871,2.0195 2.805,5.4961 2.805,10.418 v 37.332 h 10.527 V 50.7852 c 0,-3.9805 -0.433,-7.5391 -1.258,-10.6797"
         style="fill:#7b7979;fill-opacity:1;fill-rule:nonzero;stroke:none"
         id="path60" /><path
         d="m 586.605,29.3906 c -2.269,-1.3476 -4.898,-2.332 -7.933,-2.9804 -3.027,-0.5977 -5.875,-0.918 -8.547,-0.918 -8.687,0 -15.238,2.6094 -19.695,7.8359 -4.453,5.2266 -6.664,12.9453 -6.664,23.1719 0,5.3359 0.648,9.9609 1.949,13.8555 1.293,3.8867 3.105,7.082 5.43,9.6093 2.312,2.5274 5.043,4.3868 8.199,5.5782 3.144,1.1836 6.562,1.7734 10.246,1.7734 1.355,0 2.777,-0.0664 4.262,-0.2305 1.484,-0.1367 2.949,-0.3359 4.378,-0.5546 1.426,-0.2579 2.758,-0.5469 4.012,-0.8985 1.242,-0.3672 2.278,-0.7812 3.106,-1.2461 -0.114,-1.4414 -0.332,-3.0429 -0.66,-4.8164 -0.34,-1.7734 -0.684,-3.4726 -1.028,-5.0703 -2.008,1.0078 -4.203,1.7617 -6.543,2.2656 -2.344,0.5078 -4.679,0.75 -6.992,0.75 -2.148,0 -4.102,-0.3515 -5.887,-1.0195 -1.789,-0.6875 -3.308,-1.8242 -4.59,-3.4336 -1.269,-1.6094 -2.257,-3.7578 -2.937,-6.4648 -0.676,-2.6954 -1.008,-6.0508 -1.008,-10.0977 0,-7.6758 1.18,-13.1172 3.582,-16.3594 2.414,-3.2422 6.121,-4.8515 11.098,-4.8515 2.558,0 5.133,0.3828 7.711,1.1445 2.582,0.793 4.82,1.7578 6.719,2.957 0.421,-1.5508 0.792,-3.1523 1.117,-4.8164 0.336,-1.6679 0.547,-3.3789 0.675,-5.1836"
         style="fill:#7b7979;fill-opacity:1;fill-rule:nonzero;stroke:none"
         id="path62" /><path
         d="m 644.777,56.4063 c 0,-5.3946 -0.597,-10.0665 -1.828,-13.9415 -1.211,-3.9023 -2.937,-7.1054 -5.168,-9.625 -2.238,-2.5273 -4.89,-4.3867 -8.023,-5.5664 -3.113,-1.1914 -6.547,-1.7812 -10.278,-1.7812 -3.867,0 -7.359,0.5781 -10.476,1.7344 -3.109,1.1601 -5.777,2.9687 -7.965,5.4297 -2.211,2.4726 -3.902,5.6367 -5.098,9.5 -1.175,3.8671 -1.761,8.4921 -1.761,13.8984 0,5.1719 0.586,9.7148 1.761,13.6172 1.196,3.9219 2.903,7.1797 5.141,9.8164 2.223,2.5976 4.898,4.5703 8.012,5.8711 3.121,1.3047 6.578,1.957 10.386,1.957 3.86,0 7.34,-0.5898 10.473,-1.7734 3.106,-1.1914 5.766,-3.0508 7.973,-5.5782 2.176,-2.5273 3.883,-5.7226 5.074,-9.6093 1.188,-3.8946 1.777,-8.5508 1.777,-13.9492 z m -11.937,0 c 0,4.1054 -0.301,7.5156 -0.887,10.2265 -0.594,2.75 -1.465,4.9453 -2.578,6.6094 -1.152,1.668 -2.543,2.8359 -4.203,3.5234 -1.656,0.6719 -3.563,1.0313 -5.692,1.0313 -2.203,0 -4.156,-0.3594 -5.835,-1.0313 -1.692,-0.6875 -3.098,-1.8554 -4.184,-3.5234 -1.109,-1.6641 -1.941,-3.8594 -2.496,-6.6094 -0.582,-2.7109 -0.852,-6.1211 -0.852,-10.2265 0,-3.9102 0.258,-7.2305 0.77,-9.9375 0.484,-2.6993 1.293,-4.8907 2.394,-6.5899 1.082,-1.6875 2.485,-2.9258 4.184,-3.6953 1.687,-0.793 3.695,-1.1563 6.019,-1.1563 2.305,0 4.317,0.3516 6.008,1.1133 1.692,0.7344 3.086,1.9336 4.184,3.6016 1.105,1.668 1.891,3.8672 2.402,6.5976 0.512,2.7461 0.766,6.0899 0.766,10.0665"
         style="fill:#7b7979;fill-opacity:1;fill-rule:nonzero;stroke:none"
         id="path64" /><path
         d="M 282.559,141.836 C 282.559,64.1484 219.563,1.16797 141.875,1.16797 64.1641,1.16797 1.17188,64.1484 1.17188,141.836 c 0,77.703 62.99222,140.703 140.70312,140.703 77.688,0 140.684,-63 140.684,-140.703"
         style="fill:#ffffff;fill-opacity:1;fill-rule:nonzero;stroke:none"
         id="path66" /><path
         d="m 164.645,198.664 v 57.699 c 53.535,-10.605 93.918,-57.824 93.918,-114.465 0,-56.6675 -40.383,-103.8785 -93.918,-114.4683 V 176.18 h 57.71 v 22.484 h -57.71"
         style="fill:#fbbc09;fill-opacity:1;fill-rule:nonzero;stroke:none"
         id="path68" /><path
         d="M 37.5977,194.309 C 59.1641,159.227 98.5469,135.941 142.73,135.82 l 0.071,-110.6989 c -64.7658,0 -117.6252,52.3164 -117.6252,116.7769 0,18.832 4.4648,36.672 12.4219,52.411"
         style="fill:#0c7bc1;fill-opacity:1;fill-rule:nonzero;stroke:none"
         id="path70" /><path
         d="m 142.637,258.59 0.047,-19.496 c -10.067,0.226 -18.235,8.054 -19.024,17.937 6.195,1.024 12.528,1.559 18.977,1.559"
         style="fill:#0c7bc1;fill-opacity:1;fill-rule:nonzero;stroke:none"
         id="path72" /><path
         d="m 143.137,176.18 -0.348,-18.016 c -40.008,0.125 -74.4765,23.645 -90.5038,57.563 4.1406,5.058 8.6992,9.777 13.6289,14.066 11.6015,-31.191 41.6329,-53.449 76.8399,-53.613 h 0.383"
         style="fill:#0c7bc1;fill-opacity:1;fill-rule:nonzero;stroke:none"
         id="path74" /><path
         d="m 101.785,251.23 c 3.465,-19.55 20.438,-34.414 40.938,-34.632 l 0.007,-17.934 c -27.917,0.367 -50.9331,19.27 -57.605,44.801 5.3008,3.012 10.8828,5.605 16.66,7.765"
         style="fill:#0c7bc1;fill-opacity:1;fill-rule:nonzero;stroke:none"
         id="path76" /><path
         d="M 141.875,0 C 63.6406,0 0,63.6289 0,141.836 c 0,78.23 63.6406,141.871 141.875,141.871 78.195,0 141.848,-63.641 141.848,-141.871 C 283.723,63.6289 220.07,0 141.875,0 Z m 0,281.367 C 64.9375,281.367 2.35547,218.773 2.35547,141.836 2.35547,64.9219 64.9375,2.34375 141.875,2.34375 c 76.906,0 139.512,62.57815 139.512,139.49225 0,76.937 -62.606,139.531 -139.512,139.531"
         style="fill:#7b7979;fill-opacity:1;fill-rule:nonzero;stroke:none"
         id="path78" /></g></g></svg>
